<?xml version="1.0" encoding="utf-8"?>
<!-- Generator: Adobe Illustrator 17.0.2, SVG Export Plug-In . SVG Version: 6.00 Build 0)  -->
<!DOCTYPE svg PUBLIC "-//W3C//DTD SVG 1.1//EN" "http://www.w3.org/Graphics/SVG/1.1/DTD/svg11.dtd">
<svg version="1.1" id="Layer_1" xmlns="http://www.w3.org/2000/svg" xmlns:xlink="http://www.w3.org/1999/xlink" x="0px" y="0px"
	 width="579px" height="1004px" viewBox="0 0 579 1004" enable-background="new 0 0 579 1004" xml:space="preserve">
<g>
	<defs>
		<rect id="SVGID_1_" x="-157" y="-38.5" width="841.9" height="1190.5"/>
	</defs>
	<clipPath id="SVGID_2_">
		<use xlink:href="#SVGID_1_"  overflow="visible"/>
	</clipPath>
	<path clip-path="url(#SVGID_2_)" fill="#DA5465" d="M138.8,502.6c0,37.5-30.4,67.9-67.9,67.9C33.4,570.5,3,540.1,3,502.6
		c0-37.5,30.4-67.9,67.9-67.9C108.4,434.7,138.8,465.1,138.8,502.6"/>
	<path clip-path="url(#SVGID_2_)" fill="#4287BA" d="M431.3,502.6c0,37.5-30.4,67.9-67.9,67.9c-37.5,0-67.9-30.4-67.9-67.9
		c0-37.5,30.4-67.9,67.9-67.9C400.9,434.7,431.3,465.1,431.3,502.6"/>
	<path clip-path="url(#SVGID_2_)" fill="#48A664" d="M576.4,503.9c0,37.5-30.4,67.9-67.9,67.9c-37.5,0-67.9-30.4-67.9-67.9
		c0-37.5,30.4-67.9,67.9-67.9C546,436,576.4,466.4,576.4,503.9"/>
	<path clip-path="url(#SVGID_2_)" fill="#E3AC1F" d="M284.9,502.6c0,37.5-30.4,67.9-67.9,67.9c-37.5,0-67.9-30.4-67.9-67.9
		c0-37.5,30.4-67.9,67.9-67.9C254.5,434.7,284.9,465.1,284.9,502.6"/>
	<path clip-path="url(#SVGID_2_)" fill-rule="evenodd" clip-rule="evenodd" fill="#FFFFFF" d="M376.7,498.7
		c-6.8,0-12.3-5.5-12.3-12.3c0-6.8,5.5-12.3,12.3-12.3c6.8,0,12.3,5.5,12.3,12.3C388.9,493.2,383.4,498.7,376.7,498.7 M382.3,483.6
		h-2.8v-2.8c0-1.6-1.3-2.8-2.8-2.8c-1.6,0-2.8,1.3-2.8,2.8v2.8H371c-1.6,0-2.8,1.3-2.8,2.8c0,1.6,1.3,2.8,2.8,2.8h2.8v2.8
		c0,1.6,1.3,2.8,2.8,2.8c1.6,0,2.8-1.3,2.8-2.8v-2.8h2.8c1.6,0,2.8-1.3,2.8-2.8C385.1,484.9,383.9,483.6,382.3,483.6 M351.4,507
		l24.3-1.6l1.8-3.9c2.7-0.1,5.1-1,7.2-2.3l-4.6,10.1c-0.4,0.9-1.3,1.6-2.4,1.7l-24.4,1.6l1.4,4h26.6c3.1,0,5.7,2.5,5.7,5.7
		c0,3.1-2.5,5.7-5.7,5.7c-3.1,0-5.7-2.5-5.7-5.7h-26.4c0,3.1-2.5,5.7-5.7,5.7c-3.1,0-5.7-2.5-5.7-5.7c0-3.1,2.5-5.7,5.7-5.7h5.1
		l-10.9-31.1h-6.5c-1.6,0-2.8-1.3-2.8-2.8c0-1.6,1.3-2.8,2.8-2.8h8.5c1.2,0,2.3,0.8,2.7,1.9l0,0l1.6,4.7h17.4c0,2,0.4,3.9,1.1,5.7
		h-16.5L351.4,507z"/>
	<path clip-path="url(#SVGID_2_)" fill="#FFFFFF" d="M117.1,495.9c-1.6-0.4-4.2,6-10.1,6c-7.6,0-11.2-12.8-23.1-12.8
		c-9.4,0-12.3,7.4-13,7.4S67.4,489,58,489c-11.9,0-15.5,12.8-23.1,12.8c-5.9,0-8.5-6.4-10.1-6c-1.5,0.4,2.8,22.2,23.7,22.2
		c13.5,0,21.5-10.5,22.5-10.5c1,0,9,10.5,22.5,10.5C114.2,518,118.6,496.3,117.1,495.9"/>
	<path clip-path="url(#SVGID_2_)" fill-rule="evenodd" clip-rule="evenodd" fill="#FFFFFF" d="M249.2,504.3
		C249.2,504.3,249.2,504.3,249.2,504.3c0,0.1,0,0.2,0.1,0.3c0,0,0,0,0,0.1c0,0.1,0,0.2,0,0.3c0,0,0,0,0,0.1c0,0.9-0.3,1.8-0.9,2.4
		l0,0l-21.3,25.1l0,0c-0.7,0.8-1.7,1.3-2.9,1.3c-0.1,0-0.2,0-0.4,0c-0.1,0-0.2,0-0.3,0c0,0-0.1,0-0.1,0c-0.7-0.1-1.3-0.4-1.8-0.9
		l0,0l-31.3-28.8l0,0c-0.8-0.7-1.3-1.7-1.3-2.8h0v-20.1v-3.7v-0.1h0c0-2.1,1.7-3.8,3.8-3.8v0h23.8v0c0,0,0,0,0,0c1,0,2,0.4,2.7,1.1
		l28.8,27.5C248.7,502.9,249.1,503.6,249.2,504.3 M199.2,478.8c-2.8,0-5,2.2-5,5c0,2.8,2.2,5,5,5s5-2.2,5-5
		C204.2,481,202,478.8,199.2,478.8"/>
	<path clip-path="url(#SVGID_2_)" fill="#FFFFFF" d="M543.8,477.1l-43.2-3.6l7.1,12.7c0,0-34.6,23-19.7,49.8c0,0-1.6-13.5,14.8-25.4
		c2.7-1.9,6.8-4.7,13.7-8.6l7.7,13.7L543.8,477.1z"/>
	<path clip-path="url(#SVGID_2_)" fill="#F15D6F" d="M138.8,359.6c0,37.5-30.4,67.9-67.9,67.9C33.4,427.5,3,397.1,3,359.6
		c0-37.5,30.4-67.9,67.9-67.9C108.4,291.7,138.8,322.1,138.8,359.6"/>
	<path clip-path="url(#SVGID_2_)" fill="#4694CC" d="M431.3,359.6c0,37.5-30.4,67.9-67.9,67.9c-37.5,0-67.9-30.4-67.9-67.9
		c0-37.5,30.4-67.9,67.9-67.9C400.9,291.7,431.3,322.1,431.3,359.6"/>
	<path clip-path="url(#SVGID_2_)" fill="#4EB56E" d="M576.4,360.9c0,37.5-30.4,67.9-67.9,67.9c-37.5,0-67.9-30.4-67.9-67.9
		c0-37.5,30.4-67.9,67.9-67.9C546,293,576.4,323.4,576.4,360.9"/>
	<path clip-path="url(#SVGID_2_)" fill="#FBBD22" d="M284.9,359.6c0,37.5-30.4,67.9-67.9,67.9c-37.5,0-67.9-30.4-67.9-67.9
		c0-37.5,30.4-67.9,67.9-67.9C254.5,291.7,284.9,322.1,284.9,359.6"/>
	<path clip-path="url(#SVGID_2_)" fill-rule="evenodd" clip-rule="evenodd" fill="#FFFFFF" d="M376.7,355.7
		c-6.8,0-12.3-5.5-12.3-12.3c0-6.8,5.5-12.3,12.3-12.3c6.8,0,12.3,5.5,12.3,12.3C388.9,350.2,383.4,355.7,376.7,355.7 M382.3,340.6
		h-2.8v-2.8c0-1.6-1.3-2.8-2.8-2.8c-1.6,0-2.8,1.3-2.8,2.8v2.8H371c-1.6,0-2.8,1.3-2.8,2.8c0,1.6,1.3,2.8,2.8,2.8h2.8v2.8
		c0,1.6,1.3,2.8,2.8,2.8c1.6,0,2.8-1.3,2.8-2.8v-2.8h2.8c1.6,0,2.8-1.3,2.8-2.8C385.1,341.9,383.9,340.6,382.3,340.6 M351.4,364
		l24.3-1.6l1.8-3.9c2.7-0.1,5.1-1,7.2-2.3l-4.6,10.1c-0.4,0.9-1.3,1.6-2.4,1.7l-24.4,1.6l1.4,4h26.6c3.1,0,5.7,2.5,5.7,5.7
		c0,3.1-2.5,5.7-5.7,5.7c-3.1,0-5.7-2.5-5.7-5.7h-26.4c0,3.1-2.5,5.7-5.7,5.7c-3.1,0-5.7-2.5-5.7-5.7c0-3.1,2.5-5.7,5.7-5.7h5.1
		l-10.9-31.1h-6.5c-1.6,0-2.8-1.3-2.8-2.8c0-1.6,1.3-2.8,2.8-2.8h8.5c1.2,0,2.3,0.8,2.7,1.9l0,0l1.6,4.7h17.4c0,2,0.4,3.9,1.1,5.7
		h-16.5L351.4,364z"/>
	<path clip-path="url(#SVGID_2_)" fill="#FFFFFF" d="M117.1,352.9c-1.6-0.4-4.2,6-10.1,6c-7.6,0-11.2-12.8-23.1-12.8
		c-9.4,0-12.3,7.4-13,7.4S67.4,346,58,346c-11.9,0-15.5,12.8-23.1,12.8c-5.9,0-8.5-6.4-10.1-6c-1.5,0.4,2.8,22.2,23.7,22.2
		c13.5,0,21.5-10.5,22.5-10.5c1,0,9,10.5,22.5,10.5C114.2,375,118.6,353.3,117.1,352.9"/>
	<path clip-path="url(#SVGID_2_)" fill="#FFFFFF" stroke="#D74342" stroke-width="4" stroke-miterlimit="10" d="M138.8,788.6
		c0,37.5-30.4,67.9-67.9,67.9C33.4,856.5,3,826.1,3,788.6c0-37.5,30.4-67.9,67.9-67.9C108.4,720.7,138.8,751.1,138.8,788.6"/>
	<path clip-path="url(#SVGID_2_)" fill="#D74342" d="M117.1,780.9c-1.6-0.4-4.2,6-10.1,6c-7.6,0-11.2-12.8-23.1-12.8
		c-9.4,0-12.3,7.4-13,7.4S67.4,774,58,774c-11.9,0-15.5,12.8-23.1,12.8c-5.9,0-8.5-6.4-10.1-6c-1.5,0.4,2.8,22.2,23.7,22.2
		c13.5,0,21.5-10.5,22.5-10.5c1,0,9,10.5,22.5,10.5C114.2,803,118.6,781.3,117.1,780.9"/>
	<path clip-path="url(#SVGID_2_)" fill="none" stroke="#D74342" stroke-width="4" stroke-miterlimit="10" d="M138.8,933.6
		c0,37.5-30.4,67.9-67.9,67.9c-37.5,0-67.9-30.4-67.9-67.9c0-37.5,30.4-67.9,67.9-67.9C108.4,865.7,138.8,896.1,138.8,933.6"/>
	<path clip-path="url(#SVGID_2_)" fill="#D74342" d="M117.1,925.9c-1.6-0.4-4.2,6-10.1,6c-7.6,0-11.2-12.8-23.1-12.8
		c-9.4,0-12.3,7.4-13,7.4S67.4,919,58,919c-11.9,0-15.5,12.8-23.1,12.8c-5.9,0-8.5-6.4-10.1-6c-1.5,0.4,2.8,22.2,23.7,22.2
		c13.5,0,21.5-10.5,22.5-10.5c1,0,9,10.5,22.5,10.5C114.2,948,118.6,926.3,117.1,925.9"/>
	<path clip-path="url(#SVGID_2_)" fill="#D74342" d="M138.8,645.6c0,37.5-30.4,67.9-67.9,67.9C33.4,713.5,3,683.1,3,645.6
		c0-37.5,30.4-67.9,67.9-67.9C108.4,577.7,138.8,608.1,138.8,645.6"/>
	<path clip-path="url(#SVGID_2_)" fill="#FFFFFF" d="M117.1,638.9c-1.6-0.4-4.2,6-10.1,6c-7.6,0-11.2-12.8-23.1-12.8
		c-9.4,0-12.3,7.4-13,7.4S67.4,632,58,632c-11.9,0-15.5,12.8-23.1,12.8c-5.9,0-8.5-6.4-10.1-6c-1.5,0.4,2.8,22.2,23.7,22.2
		c13.5,0,21.5-10.5,22.5-10.5c1,0,9,10.5,22.5,10.5C114.2,661,118.6,639.3,117.1,638.9"/>
	<path clip-path="url(#SVGID_2_)" fill="#FFFFFF" stroke="#F15D6F" stroke-width="4" stroke-miterlimit="10" d="M138.8,70.6
		c0,37.5-30.4,67.9-67.9,67.9C33.4,138.5,3,108.1,3,70.6C3,33.1,33.4,2.7,70.9,2.7C108.4,2.7,138.8,33.1,138.8,70.6"/>
	<path clip-path="url(#SVGID_2_)" fill="#F15D6F" d="M117.1,63.9c-1.6-0.4-4.2,6-10.1,6C99.3,69.8,95.8,57,83.9,57
		c-9.4,0-12.3,7.4-13,7.4S67.4,57,58,57C46,57,42.5,69.8,34.8,69.8c-5.9,0-8.5-6.4-10.1-6C23.2,64.3,27.6,86,48.4,86
		c13.5,0,21.5-10.5,22.5-10.5c1,0,9,10.5,22.5,10.5C114.2,86,118.6,64.3,117.1,63.9"/>
	<path clip-path="url(#SVGID_2_)" fill-rule="evenodd" clip-rule="evenodd" fill="#FFFFFF" d="M249.2,361.3
		C249.2,361.3,249.2,361.3,249.2,361.3c0,0.1,0,0.2,0.1,0.3c0,0,0,0,0,0.1c0,0.1,0,0.2,0,0.3c0,0,0,0,0,0.1c0,0.9-0.3,1.8-0.9,2.4
		l0,0l-21.3,25.1l0,0c-0.7,0.8-1.7,1.3-2.9,1.3c-0.1,0-0.2,0-0.4,0c-0.1,0-0.2,0-0.3,0c0,0-0.1,0-0.1,0c-0.7-0.1-1.3-0.4-1.8-0.9
		l0,0l-31.3-28.8l0,0c-0.8-0.7-1.3-1.7-1.3-2.8h0v-20.1v-3.7v-0.1h0c0-2.1,1.7-3.8,3.8-3.8v0h23.8v0c0,0,0,0,0,0c1,0,2,0.4,2.7,1.1
		l28.8,27.5C248.7,359.9,249.1,360.6,249.2,361.3 M199.2,335.8c-2.8,0-5,2.2-5,5c0,2.8,2.2,5,5,5s5-2.2,5-5
		C204.2,338,202,335.8,199.2,335.8"/>
	<path clip-path="url(#SVGID_2_)" fill="#FFFFFF" d="M543.8,334.1l-43.2-3.6l7.1,12.7c0,0-34.6,23-19.7,49.8c0,0-1.6-13.5,14.8-25.4
		c2.7-1.9,6.8-4.7,13.7-8.6l7.7,13.7L543.8,334.1z"/>
	<path clip-path="url(#SVGID_2_)" fill="#FFFFFF" stroke="#4694CC" stroke-width="4" stroke-miterlimit="10" d="M431.3,70.6
		c0,37.5-30.4,67.9-67.9,67.9c-37.5,0-67.9-30.4-67.9-67.9c0-37.5,30.4-67.9,67.9-67.9C400.9,2.7,431.3,33.1,431.3,70.6"/>
	<path clip-path="url(#SVGID_2_)" fill="#FFFFFF" stroke="#4EB56E" stroke-width="4" stroke-miterlimit="10" d="M576.4,71.9
		c0,37.5-30.4,67.9-67.9,67.9c-37.5,0-67.9-30.4-67.9-67.9C440.6,34.4,471,4,508.5,4C546,4,576.4,34.4,576.4,71.9"/>
	<path clip-path="url(#SVGID_2_)" fill="#FFFFFF" stroke="#FBBD22" stroke-width="4" stroke-miterlimit="10" d="M284.9,70.6
		c0,37.5-30.4,67.9-67.9,67.9c-37.5,0-67.9-30.4-67.9-67.9c0-37.5,30.4-67.9,67.9-67.9C254.5,2.7,284.9,33.1,284.9,70.6"/>
	<path clip-path="url(#SVGID_2_)" fill-rule="evenodd" clip-rule="evenodd" fill="#4694CC" d="M376.7,66.7
		c-6.8,0-12.3-5.5-12.3-12.3c0-6.8,5.5-12.3,12.3-12.3c6.8,0,12.3,5.5,12.3,12.3C388.9,61.2,383.4,66.7,376.7,66.7 M382.3,51.6h-2.8
		v-2.8c0-1.6-1.3-2.8-2.8-2.8c-1.6,0-2.8,1.3-2.8,2.8v2.8H371c-1.6,0-2.8,1.3-2.8,2.8s1.3,2.8,2.8,2.8h2.8v2.8
		c0,1.6,1.3,2.8,2.8,2.8c1.6,0,2.8-1.3,2.8-2.8v-2.8h2.8c1.6,0,2.8-1.3,2.8-2.8S383.9,51.6,382.3,51.6 M351.4,75l24.3-1.6l1.8-3.9
		c2.7-0.1,5.1-1,7.2-2.3l-4.6,10.1c-0.4,0.9-1.3,1.6-2.4,1.7l-24.4,1.6l1.4,4h26.6c3.1,0,5.7,2.5,5.7,5.7c0,3.1-2.5,5.7-5.7,5.7
		c-3.1,0-5.7-2.5-5.7-5.7h-26.4c0,3.1-2.5,5.7-5.7,5.7c-3.1,0-5.7-2.5-5.7-5.7c0-3.1,2.5-5.7,5.7-5.7h5.1l-10.9-31.1h-6.5
		c-1.6,0-2.8-1.3-2.8-2.8c0-1.6,1.3-2.8,2.8-2.8h8.5c1.2,0,2.3,0.8,2.7,1.9l0,0l1.6,4.7h17.4c0,2,0.4,3.9,1.1,5.7h-16.5L351.4,75z"
		/>
	<path clip-path="url(#SVGID_2_)" fill-rule="evenodd" clip-rule="evenodd" fill="#FBBD22" d="M249.2,72.3
		C249.2,72.3,249.2,72.3,249.2,72.3c0,0.1,0,0.2,0.1,0.3c0,0,0,0,0,0.1c0,0.1,0,0.2,0,0.3c0,0,0,0,0,0.1c0,0.9-0.3,1.8-0.9,2.4l0,0
		l-21.3,25.1l0,0c-0.7,0.8-1.7,1.3-2.9,1.3c-0.1,0-0.2,0-0.4,0c-0.1,0-0.2,0-0.3,0c0,0-0.1,0-0.1,0c-0.7-0.1-1.3-0.4-1.8-0.9l0,0
		l-31.3-28.8l0,0c-0.8-0.7-1.3-1.7-1.3-2.8h0V49.2v-3.7v-0.1h0c0-2.1,1.7-3.8,3.8-3.8v0h23.8v0c0,0,0,0,0,0c1,0,2,0.4,2.7,1.1
		l28.8,27.5C248.7,70.9,249.1,71.6,249.2,72.3 M199.2,46.8c-2.8,0-5,2.2-5,5c0,2.8,2.2,5,5,5s5-2.2,5-5
		C204.2,49,202,46.8,199.2,46.8"/>
	<path clip-path="url(#SVGID_2_)" fill="#4EB56E" d="M543.8,45.1l-43.2-3.6l7.1,12.7c0,0-34.6,23-19.7,49.8c0,0-1.6-13.5,14.8-25.4
		c2.7-1.9,6.8-4.7,13.7-8.6l7.7,13.7L543.8,45.1z"/>
	<path clip-path="url(#SVGID_2_)" fill="none" stroke="#F15D6F" stroke-width="4" stroke-miterlimit="10" d="M138.8,215.6
		c0,37.5-30.4,67.9-67.9,67.9C33.4,283.5,3,253.1,3,215.6c0-37.5,30.4-67.9,67.9-67.9C108.4,147.7,138.8,178.1,138.8,215.6"/>
	<path clip-path="url(#SVGID_2_)" fill="#F15D6F" d="M117.1,208.9c-1.6-0.4-4.2,6-10.1,6c-7.6,0-11.2-12.8-23.1-12.8
		c-9.4,0-12.3,7.4-13,7.4S67.4,202,58,202c-11.9,0-15.5,12.8-23.1,12.8c-5.9,0-8.5-6.4-10.1-6c-1.5,0.4,2.8,22.2,23.7,22.2
		c13.5,0,21.5-10.5,22.5-10.5c1,0,9,10.5,22.5,10.5C114.2,231,118.6,209.3,117.1,208.9"/>
	<path clip-path="url(#SVGID_2_)" fill="none" stroke="#4694CC" stroke-width="4" stroke-miterlimit="10" d="M431.3,215.6
		c0,37.5-30.4,67.9-67.9,67.9c-37.5,0-67.9-30.4-67.9-67.9c0-37.5,30.4-67.9,67.9-67.9C400.9,147.7,431.3,178.1,431.3,215.6"/>
	<path clip-path="url(#SVGID_2_)" fill="none" stroke="#4EB56E" stroke-width="4" stroke-miterlimit="10" d="M576.4,216.9
		c0,37.5-30.4,67.9-67.9,67.9c-37.5,0-67.9-30.4-67.9-67.9c0-37.5,30.4-67.9,67.9-67.9C546,149,576.4,179.4,576.4,216.9"/>
	<path clip-path="url(#SVGID_2_)" fill="none" stroke="#FBBD22" stroke-width="4" stroke-miterlimit="10" d="M284.9,215.6
		c0,37.5-30.4,67.9-67.9,67.9c-37.5,0-67.9-30.4-67.9-67.9c0-37.5,30.4-67.9,67.9-67.9C254.5,147.7,284.9,178.1,284.9,215.6"/>
	<path clip-path="url(#SVGID_2_)" fill-rule="evenodd" clip-rule="evenodd" fill="#4694CC" d="M376.7,211.7
		c-6.8,0-12.3-5.5-12.3-12.3c0-6.8,5.5-12.3,12.3-12.3c6.8,0,12.3,5.5,12.3,12.3C388.9,206.2,383.4,211.7,376.7,211.7 M382.3,196.6
		h-2.8v-2.8c0-1.6-1.3-2.8-2.8-2.8c-1.6,0-2.8,1.3-2.8,2.8v2.8H371c-1.6,0-2.8,1.3-2.8,2.8s1.3,2.8,2.8,2.8h2.8v2.8
		c0,1.6,1.3,2.8,2.8,2.8c1.6,0,2.8-1.3,2.8-2.8v-2.8h2.8c1.6,0,2.8-1.3,2.8-2.8S383.9,196.6,382.3,196.6 M351.4,220l24.3-1.6
		l1.8-3.9c2.7-0.1,5.1-1,7.2-2.3l-4.6,10.1c-0.4,0.9-1.3,1.6-2.4,1.7l-24.4,1.6l1.4,4h26.6c3.1,0,5.7,2.5,5.7,5.7
		c0,3.1-2.5,5.7-5.7,5.7c-3.1,0-5.7-2.5-5.7-5.7h-26.4c0,3.1-2.5,5.7-5.7,5.7c-3.1,0-5.7-2.5-5.7-5.7c0-3.1,2.5-5.7,5.7-5.7h5.1
		l-10.9-31.1h-6.5c-1.6,0-2.8-1.3-2.8-2.8c0-1.6,1.3-2.8,2.8-2.8h8.5c1.2,0,2.3,0.8,2.7,1.9l0,0l1.6,4.7h17.4c0,2,0.4,3.9,1.1,5.7
		h-16.5L351.4,220z"/>
	<path clip-path="url(#SVGID_2_)" fill-rule="evenodd" clip-rule="evenodd" fill="#FBBD22" d="M249.2,217.3
		C249.2,217.3,249.2,217.3,249.2,217.3c0,0.1,0,0.2,0.1,0.3c0,0,0,0,0,0.1c0,0.1,0,0.2,0,0.3c0,0,0,0,0,0.1c0,0.9-0.3,1.8-0.9,2.4
		l0,0l-21.3,25.1l0,0c-0.7,0.8-1.7,1.3-2.9,1.3c-0.1,0-0.2,0-0.4,0c-0.1,0-0.2,0-0.3,0c0,0-0.1,0-0.1,0c-0.7-0.1-1.3-0.4-1.8-0.9
		l0,0l-31.3-28.8l0,0c-0.8-0.7-1.3-1.7-1.3-2.8h0v-20.1v-3.7v-0.1h0c0-2.1,1.7-3.8,3.8-3.8v0h23.8v0c0,0,0,0,0,0c1,0,2,0.4,2.7,1.1
		l28.8,27.5C248.7,215.9,249.1,216.6,249.2,217.3 M199.2,191.8c-2.8,0-5,2.2-5,5c0,2.8,2.2,5,5,5s5-2.2,5-5
		C204.2,194,202,191.8,199.2,191.8"/>
	<path clip-path="url(#SVGID_2_)" fill="#4EB56E" d="M543.8,190.1l-43.2-3.6l7.1,12.7c0,0-34.6,23-19.7,49.8c0,0-1.6-13.5,14.8-25.4
		c2.7-1.9,6.8-4.7,13.7-8.6l7.7,13.7L543.8,190.1z"/>
</g>
</svg>
