<?xml version="1.0" encoding="utf-8"?>
<!-- Generator: Adobe Illustrator 17.0.2, SVG Export Plug-In . SVG Version: 6.00 Build 0)  -->
<!DOCTYPE svg PUBLIC "-//W3C//DTD SVG 1.1//EN" "http://www.w3.org/Graphics/SVG/1.1/DTD/svg11.dtd">
<svg version="1.1" id="Layer_1" xmlns="http://www.w3.org/2000/svg" xmlns:xlink="http://www.w3.org/1999/xlink" x="0px" y="0px"
	 width="562px" height="985px" viewBox="0 0 562 985" enable-background="new 0 0 562 985" xml:space="preserve">
<g>
	<defs>
		<rect id="SVGID_1_" x="-160" y="-42.5" width="841.9" height="1190.5"/>
	</defs>
	<clipPath id="SVGID_2_">
		<use xlink:href="#SVGID_1_"  overflow="visible"/>
	</clipPath>
	<path clip-path="url(#SVGID_2_)" fill="#DA5465" d="M137.8,492.6c0,37.5-30.4,67.9-67.9,67.9C32.4,560.5,2,530.1,2,492.6
		c0-37.5,30.4-67.9,67.9-67.9C107.4,424.7,137.8,455.1,137.8,492.6"/>
	<path clip-path="url(#SVGID_2_)" fill="#4287BA" d="M420.3,492.6c0,37.5-30.4,67.9-67.9,67.9c-37.5,0-67.9-30.4-67.9-67.9
		c0-37.5,30.4-67.9,67.9-67.9C389.9,424.7,420.3,455.1,420.3,492.6"/>
	<path clip-path="url(#SVGID_2_)" fill="#48A664" d="M560.4,493.9c0,37.5-30.4,67.9-67.9,67.9c-37.5,0-67.9-30.4-67.9-67.9
		c0-37.5,30.4-67.9,67.9-67.9C530,426,560.4,456.4,560.4,493.9"/>
	<path clip-path="url(#SVGID_2_)" fill="#E3AC1F" d="M278.9,492.6c0,37.5-30.4,67.9-67.9,67.9c-37.5,0-67.9-30.4-67.9-67.9
		c0-37.5,30.4-67.9,67.9-67.9C248.5,424.7,278.9,455.1,278.9,492.6"/>
	<path clip-path="url(#SVGID_2_)" fill-rule="evenodd" clip-rule="evenodd" fill="#FFFFFF" d="M365.7,488.7
		c-6.8,0-12.3-5.5-12.3-12.3c0-6.8,5.5-12.3,12.3-12.3c6.8,0,12.3,5.5,12.3,12.3C377.9,483.2,372.4,488.7,365.7,488.7 M371.3,473.6
		h-2.8v-2.8c0-1.6-1.3-2.8-2.8-2.8c-1.6,0-2.8,1.3-2.8,2.8v2.8H360c-1.6,0-2.8,1.3-2.8,2.8c0,1.6,1.3,2.8,2.8,2.8h2.8v2.8
		c0,1.6,1.3,2.8,2.8,2.8c1.6,0,2.8-1.3,2.8-2.8v-2.8h2.8c1.6,0,2.8-1.3,2.8-2.8C374.1,474.9,372.9,473.6,371.3,473.6 M340.4,497
		l24.3-1.6l1.8-3.9c2.7-0.1,5.1-1,7.2-2.3l-4.6,10.1c-0.4,0.9-1.3,1.6-2.4,1.7l-24.4,1.6l1.4,4h26.6c3.1,0,5.7,2.5,5.7,5.7
		c0,3.1-2.5,5.7-5.7,5.7c-3.1,0-5.7-2.5-5.7-5.7h-26.4c0,3.1-2.5,5.7-5.7,5.7c-3.1,0-5.7-2.5-5.7-5.7c0-3.1,2.5-5.7,5.7-5.7h5.1
		l-10.9-31.1h-6.5c-1.6,0-2.8-1.3-2.8-2.8c0-1.6,1.3-2.8,2.8-2.8h8.5c1.2,0,2.3,0.8,2.7,1.9l0,0l1.6,4.7h17.4c0,2,0.4,3.9,1.1,5.7
		h-16.5L340.4,497z"/>
	<path clip-path="url(#SVGID_2_)" fill="#FFFFFF" d="M116.1,485.9c-1.6-0.4-4.2,6-10.1,6c-7.6,0-11.2-12.8-23.1-12.8
		c-9.4,0-12.3,7.4-13,7.4S66.4,479,57,479c-11.9,0-15.5,12.8-23.1,12.8c-5.9,0-8.5-6.4-10.1-6c-1.5,0.4,2.8,22.2,23.7,22.2
		c13.5,0,21.5-10.5,22.5-10.5c1,0,9,10.5,22.5,10.5C113.2,508,117.6,486.3,116.1,485.9"/>
	<path clip-path="url(#SVGID_2_)" fill-rule="evenodd" clip-rule="evenodd" fill="#FFFFFF" d="M243.2,494.3
		C243.2,494.3,243.2,494.3,243.2,494.3c0,0.1,0,0.2,0.1,0.3c0,0,0,0,0,0.1c0,0.1,0,0.2,0,0.3c0,0,0,0,0,0.1c0,0.9-0.3,1.8-0.9,2.4
		l0,0l-21.3,25.1l0,0c-0.7,0.8-1.7,1.3-2.9,1.3c-0.1,0-0.2,0-0.4,0c-0.1,0-0.2,0-0.3,0c0,0-0.1,0-0.1,0c-0.7-0.1-1.3-0.4-1.8-0.9
		l0,0l-31.3-28.8l0,0c-0.8-0.7-1.3-1.7-1.3-2.8h0v-20.1v-3.7v-0.1h0c0-2.1,1.7-3.8,3.8-3.8v0h23.8v0c0,0,0,0,0,0c1,0,2,0.4,2.7,1.1
		l28.8,27.5C242.7,492.9,243.1,493.6,243.2,494.3 M193.2,468.8c-2.8,0-5,2.2-5,5c0,2.8,2.2,5,5,5s5-2.2,5-5
		C198.2,471,196,468.8,193.2,468.8"/>
	<path clip-path="url(#SVGID_2_)" fill="#FFFFFF" d="M527.8,467.1l-43.2-3.6l7.1,12.7c0,0-34.6,23-19.7,49.8c0,0-1.6-13.5,14.8-25.4
		c2.7-1.9,6.8-4.7,13.7-8.6l7.7,13.7L527.8,467.1z"/>
	<path clip-path="url(#SVGID_2_)" fill="#F15D6F" d="M137.8,352.6c0,37.5-30.4,67.9-67.9,67.9C32.4,420.5,2,390.1,2,352.6
		c0-37.5,30.4-67.9,67.9-67.9C107.4,284.7,137.8,315.1,137.8,352.6"/>
	<path clip-path="url(#SVGID_2_)" fill="#4694CC" d="M420.3,352.6c0,37.5-30.4,67.9-67.9,67.9c-37.5,0-67.9-30.4-67.9-67.9
		c0-37.5,30.4-67.9,67.9-67.9C389.9,284.7,420.3,315.1,420.3,352.6"/>
	<path clip-path="url(#SVGID_2_)" fill="#4EB56E" d="M560.4,353.9c0,37.5-30.4,67.9-67.9,67.9c-37.5,0-67.9-30.4-67.9-67.9
		c0-37.5,30.4-67.9,67.9-67.9C530,286,560.4,316.4,560.4,353.9"/>
	<path clip-path="url(#SVGID_2_)" fill="#FBBD22" d="M278.9,352.6c0,37.5-30.4,67.9-67.9,67.9c-37.5,0-67.9-30.4-67.9-67.9
		c0-37.5,30.4-67.9,67.9-67.9C248.5,284.7,278.9,315.1,278.9,352.6"/>
	<path clip-path="url(#SVGID_2_)" fill-rule="evenodd" clip-rule="evenodd" fill="#FFFFFF" d="M365.7,348.7
		c-6.8,0-12.3-5.5-12.3-12.3c0-6.8,5.5-12.3,12.3-12.3c6.8,0,12.3,5.5,12.3,12.3C377.9,343.2,372.4,348.7,365.7,348.7 M371.3,333.6
		h-2.8v-2.8c0-1.6-1.3-2.8-2.8-2.8c-1.6,0-2.8,1.3-2.8,2.8v2.8H360c-1.6,0-2.8,1.3-2.8,2.8c0,1.6,1.3,2.8,2.8,2.8h2.8v2.8
		c0,1.6,1.3,2.8,2.8,2.8c1.6,0,2.8-1.3,2.8-2.8v-2.8h2.8c1.6,0,2.8-1.3,2.8-2.8C374.1,334.9,372.9,333.6,371.3,333.6 M340.4,357
		l24.3-1.6l1.8-3.9c2.7-0.1,5.1-1,7.2-2.3l-4.6,10.1c-0.4,0.9-1.3,1.6-2.4,1.7l-24.4,1.6l1.4,4h26.6c3.1,0,5.7,2.5,5.7,5.7
		c0,3.1-2.5,5.7-5.7,5.7c-3.1,0-5.7-2.5-5.7-5.7h-26.4c0,3.1-2.5,5.7-5.7,5.7c-3.1,0-5.7-2.5-5.7-5.7c0-3.1,2.5-5.7,5.7-5.7h5.1
		l-10.9-31.1h-6.5c-1.6,0-2.8-1.3-2.8-2.8c0-1.6,1.3-2.8,2.8-2.8h8.5c1.2,0,2.3,0.8,2.7,1.9l0,0l1.6,4.7h17.4c0,2,0.4,3.9,1.1,5.7
		h-16.5L340.4,357z"/>
	<path clip-path="url(#SVGID_2_)" fill="#FFFFFF" d="M116.1,345.9c-1.6-0.4-4.2,6-10.1,6c-7.6,0-11.2-12.8-23.1-12.8
		c-9.4,0-12.3,7.4-13,7.4S66.4,339,57,339c-11.9,0-15.5,12.8-23.1,12.8c-5.9,0-8.5-6.4-10.1-6c-1.5,0.4,2.8,22.2,23.7,22.2
		c13.5,0,21.5-10.5,22.5-10.5c1,0,9,10.5,22.5,10.5C113.2,368,117.6,346.3,116.1,345.9"/>
	<path clip-path="url(#SVGID_2_)" fill="#FFFFFF" stroke="#D74342" stroke-width="3" stroke-miterlimit="10" d="M137.8,773.6
		c0,37.5-30.4,67.9-67.9,67.9C32.4,841.5,2,811.1,2,773.6c0-37.5,30.4-67.9,67.9-67.9C107.4,705.7,137.8,736.1,137.8,773.6"/>
	<path clip-path="url(#SVGID_2_)" fill="#D74342" d="M116.1,765.9c-1.6-0.4-4.2,6-10.1,6c-7.6,0-11.2-12.8-23.1-12.8
		c-9.4,0-12.3,7.4-13,7.4S66.4,759,57,759c-11.9,0-15.5,12.8-23.1,12.8c-5.9,0-8.5-6.4-10.1-6c-1.5,0.4,2.8,22.2,23.7,22.2
		c13.5,0,21.5-10.5,22.5-10.5c1,0,9,10.5,22.5,10.5C113.2,788,117.6,766.3,116.1,765.9"/>
	<path clip-path="url(#SVGID_2_)" fill="none" stroke="#D74342" stroke-width="3" stroke-miterlimit="10" d="M137.8,914.6
		c0,37.5-30.4,67.9-67.9,67.9C32.4,982.5,2,952.1,2,914.6c0-37.5,30.4-67.9,67.9-67.9C107.4,846.7,137.8,877.1,137.8,914.6"/>
	<path clip-path="url(#SVGID_2_)" fill="#D74342" d="M116.1,906.9c-1.6-0.4-4.2,6-10.1,6c-7.6,0-11.2-12.8-23.1-12.8
		c-9.4,0-12.3,7.4-13,7.4S66.4,900,57,900c-11.9,0-15.5,12.8-23.1,12.8c-5.9,0-8.5-6.4-10.1-6c-1.5,0.4,2.8,22.2,23.7,22.2
		c13.5,0,21.5-10.5,22.5-10.5c1,0,9,10.5,22.5,10.5C113.2,929,117.6,907.3,116.1,906.9"/>
	<path clip-path="url(#SVGID_2_)" fill="#D74342" d="M137.8,632.6c0,37.5-30.4,67.9-67.9,67.9C32.4,700.5,2,670.1,2,632.6
		c0-37.5,30.4-67.9,67.9-67.9C107.4,564.7,137.8,595.1,137.8,632.6"/>
	<path clip-path="url(#SVGID_2_)" fill="#FFFFFF" d="M116.1,625.9c-1.6-0.4-4.2,6-10.1,6c-7.6,0-11.2-12.8-23.1-12.8
		c-9.4,0-12.3,7.4-13,7.4S66.4,619,57,619c-11.9,0-15.5,12.8-23.1,12.8c-5.9,0-8.5-6.4-10.1-6c-1.5,0.4,2.8,22.2,23.7,22.2
		c13.5,0,21.5-10.5,22.5-10.5c1,0,9,10.5,22.5,10.5C113.2,648,117.6,626.3,116.1,625.9"/>
	<path clip-path="url(#SVGID_2_)" fill="#FFFFFF" stroke="#F15D6F" stroke-width="3" stroke-miterlimit="10" d="M137.8,69.6
		c0,37.5-30.4,67.9-67.9,67.9C32.4,137.5,2,107.1,2,69.6C2,32.1,32.4,1.7,69.9,1.7C107.4,1.7,137.8,32.1,137.8,69.6"/>
	<path clip-path="url(#SVGID_2_)" fill="#F15D6F" d="M116.1,62.9c-1.6-0.4-4.2,6-10.1,6C98.3,68.8,94.8,56,82.9,56
		c-9.4,0-12.3,7.4-13,7.4S66.4,56,57,56C45,56,41.5,68.8,33.8,68.8c-5.9,0-8.5-6.4-10.1-6C22.2,63.3,26.6,85,47.4,85
		c13.5,0,21.5-10.5,22.5-10.5c1,0,9,10.5,22.5,10.5C113.2,85,117.6,63.3,116.1,62.9"/>
	<path clip-path="url(#SVGID_2_)" fill-rule="evenodd" clip-rule="evenodd" fill="#FFFFFF" d="M243.2,354.3
		C243.2,354.3,243.2,354.3,243.2,354.3c0,0.1,0,0.2,0.1,0.3c0,0,0,0,0,0.1c0,0.1,0,0.2,0,0.3c0,0,0,0,0,0.1c0,0.9-0.3,1.8-0.9,2.4
		l0,0l-21.3,25.1l0,0c-0.7,0.8-1.7,1.3-2.9,1.3c-0.1,0-0.2,0-0.4,0c-0.1,0-0.2,0-0.3,0c0,0-0.1,0-0.1,0c-0.7-0.1-1.3-0.4-1.8-0.9
		l0,0l-31.3-28.8l0,0c-0.8-0.7-1.3-1.7-1.3-2.8h0v-20.1v-3.7v-0.1h0c0-2.1,1.7-3.8,3.8-3.8v0h23.8v0c0,0,0,0,0,0c1,0,2,0.4,2.7,1.1
		l28.8,27.5C242.7,352.9,243.1,353.6,243.2,354.3 M193.2,328.8c-2.8,0-5,2.2-5,5c0,2.8,2.2,5,5,5s5-2.2,5-5
		C198.2,331,196,328.8,193.2,328.8"/>
	<path clip-path="url(#SVGID_2_)" fill="#FFFFFF" d="M527.8,327.1l-43.2-3.6l7.1,12.7c0,0-34.6,23-19.7,49.8c0,0-1.6-13.5,14.8-25.4
		c2.7-1.9,6.8-4.7,13.7-8.6l7.7,13.7L527.8,327.1z"/>
	<path clip-path="url(#SVGID_2_)" fill="#FFFFFF" stroke="#4694CC" stroke-width="3" stroke-miterlimit="10" d="M420.3,69.6
		c0,37.5-30.4,67.9-67.9,67.9c-37.5,0-67.9-30.4-67.9-67.9c0-37.5,30.4-67.9,67.9-67.9C389.9,1.7,420.3,32.1,420.3,69.6"/>
	<path clip-path="url(#SVGID_2_)" fill="#FFFFFF" stroke="#4EB56E" stroke-width="3" stroke-miterlimit="10" d="M560.4,70.9
		c0,37.5-30.4,67.9-67.9,67.9c-37.5,0-67.9-30.4-67.9-67.9C424.6,33.4,455,3,492.5,3C530,3,560.4,33.4,560.4,70.9"/>
	<path clip-path="url(#SVGID_2_)" fill="#FFFFFF" stroke="#FBBD22" stroke-width="3" stroke-miterlimit="10" d="M278.9,69.6
		c0,37.5-30.4,67.9-67.9,67.9c-37.5,0-67.9-30.4-67.9-67.9c0-37.5,30.4-67.9,67.9-67.9C248.5,1.7,278.9,32.1,278.9,69.6"/>
	<path clip-path="url(#SVGID_2_)" fill-rule="evenodd" clip-rule="evenodd" fill="#4694CC" d="M365.7,65.7
		c-6.8,0-12.3-5.5-12.3-12.3c0-6.8,5.5-12.3,12.3-12.3c6.8,0,12.3,5.5,12.3,12.3C377.9,60.2,372.4,65.7,365.7,65.7 M371.3,50.6h-2.8
		v-2.8c0-1.6-1.3-2.8-2.8-2.8c-1.6,0-2.8,1.3-2.8,2.8v2.8H360c-1.6,0-2.8,1.3-2.8,2.8s1.3,2.8,2.8,2.8h2.8v2.8
		c0,1.6,1.3,2.8,2.8,2.8c1.6,0,2.8-1.3,2.8-2.8v-2.8h2.8c1.6,0,2.8-1.3,2.8-2.8S372.9,50.6,371.3,50.6 M340.4,74l24.3-1.6l1.8-3.9
		c2.7-0.1,5.1-1,7.2-2.3l-4.6,10.1c-0.4,0.9-1.3,1.6-2.4,1.7l-24.4,1.6l1.4,4h26.6c3.1,0,5.7,2.5,5.7,5.7c0,3.1-2.5,5.7-5.7,5.7
		c-3.1,0-5.7-2.5-5.7-5.7h-26.4c0,3.1-2.5,5.7-5.7,5.7c-3.1,0-5.7-2.5-5.7-5.7c0-3.1,2.5-5.7,5.7-5.7h5.1l-10.9-31.1h-6.5
		c-1.6,0-2.8-1.3-2.8-2.8c0-1.6,1.3-2.8,2.8-2.8h8.5c1.2,0,2.3,0.8,2.7,1.9l0,0l1.6,4.7h17.4c0,2,0.4,3.9,1.1,5.7h-16.5L340.4,74z"
		/>
	<path clip-path="url(#SVGID_2_)" fill-rule="evenodd" clip-rule="evenodd" fill="#FBBD22" d="M243.2,71.3
		C243.2,71.3,243.2,71.3,243.2,71.3c0,0.1,0,0.2,0.1,0.3c0,0,0,0,0,0.1c0,0.1,0,0.2,0,0.3c0,0,0,0,0,0.1c0,0.9-0.3,1.8-0.9,2.4l0,0
		l-21.3,25.1l0,0c-0.7,0.8-1.7,1.3-2.9,1.3c-0.1,0-0.2,0-0.4,0c-0.1,0-0.2,0-0.3,0c0,0-0.1,0-0.1,0c-0.7-0.1-1.3-0.4-1.8-0.9l0,0
		l-31.3-28.8l0,0c-0.8-0.7-1.3-1.7-1.3-2.8h0V48.2v-3.7v-0.1h0c0-2.1,1.7-3.8,3.8-3.8v0h23.8v0c0,0,0,0,0,0c1,0,2,0.4,2.7,1.1
		l28.8,27.5C242.7,69.9,243.1,70.6,243.2,71.3 M193.2,45.8c-2.8,0-5,2.2-5,5c0,2.8,2.2,5,5,5s5-2.2,5-5
		C198.2,48,196,45.8,193.2,45.8"/>
	<path clip-path="url(#SVGID_2_)" fill="#4EB56E" d="M527.8,44.1l-43.2-3.6l7.1,12.7c0,0-34.6,23-19.7,49.8c0,0-1.6-13.5,14.8-25.4
		c2.7-1.9,6.8-4.7,13.7-8.6l7.7,13.7L527.8,44.1z"/>
	<path clip-path="url(#SVGID_2_)" fill="none" stroke="#F15D6F" stroke-width="3" stroke-miterlimit="10" d="M137.8,211.6
		c0,37.5-30.4,67.9-67.9,67.9C32.4,279.5,2,249.1,2,211.6c0-37.5,30.4-67.9,67.9-67.9C107.4,143.7,137.8,174.1,137.8,211.6"/>
	<path clip-path="url(#SVGID_2_)" fill="#F15D6F" d="M116.1,204.9c-1.6-0.4-4.2,6-10.1,6c-7.6,0-11.2-12.8-23.1-12.8
		c-9.4,0-12.3,7.4-13,7.4S66.4,198,57,198c-11.9,0-15.5,12.8-23.1,12.8c-5.9,0-8.5-6.4-10.1-6c-1.5,0.4,2.8,22.2,23.7,22.2
		c13.5,0,21.5-10.5,22.5-10.5c1,0,9,10.5,22.5,10.5C113.2,227,117.6,205.3,116.1,204.9"/>
	<path clip-path="url(#SVGID_2_)" fill="none" stroke="#4694CC" stroke-width="3" stroke-miterlimit="10" d="M420.3,211.6
		c0,37.5-30.4,67.9-67.9,67.9c-37.5,0-67.9-30.4-67.9-67.9c0-37.5,30.4-67.9,67.9-67.9C389.9,143.7,420.3,174.1,420.3,211.6"/>
	<path clip-path="url(#SVGID_2_)" fill="none" stroke="#4EB56E" stroke-width="3" stroke-miterlimit="10" d="M560.4,212.9
		c0,37.5-30.4,67.9-67.9,67.9c-37.5,0-67.9-30.4-67.9-67.9c0-37.5,30.4-67.9,67.9-67.9C530,145,560.4,175.4,560.4,212.9"/>
	<path clip-path="url(#SVGID_2_)" fill="none" stroke="#FBBD22" stroke-width="3" stroke-miterlimit="10" d="M278.9,211.6
		c0,37.5-30.4,67.9-67.9,67.9c-37.5,0-67.9-30.4-67.9-67.9c0-37.5,30.4-67.9,67.9-67.9C248.5,143.7,278.9,174.1,278.9,211.6"/>
	<path clip-path="url(#SVGID_2_)" fill-rule="evenodd" clip-rule="evenodd" fill="#4694CC" d="M365.7,207.7
		c-6.8,0-12.3-5.5-12.3-12.3c0-6.8,5.5-12.3,12.3-12.3c6.8,0,12.3,5.5,12.3,12.3C377.9,202.2,372.4,207.7,365.7,207.7 M371.3,192.6
		h-2.8v-2.8c0-1.6-1.3-2.8-2.8-2.8c-1.6,0-2.8,1.3-2.8,2.8v2.8H360c-1.6,0-2.8,1.3-2.8,2.8s1.3,2.8,2.8,2.8h2.8v2.8
		c0,1.6,1.3,2.8,2.8,2.8c1.6,0,2.8-1.3,2.8-2.8v-2.8h2.8c1.6,0,2.8-1.3,2.8-2.8S372.9,192.6,371.3,192.6 M340.4,216l24.3-1.6
		l1.8-3.9c2.7-0.1,5.1-1,7.2-2.3l-4.6,10.1c-0.4,0.9-1.3,1.6-2.4,1.7l-24.4,1.6l1.4,4h26.6c3.1,0,5.7,2.5,5.7,5.7
		c0,3.1-2.5,5.7-5.7,5.7c-3.1,0-5.7-2.5-5.7-5.7h-26.4c0,3.1-2.5,5.7-5.7,5.7c-3.1,0-5.7-2.5-5.7-5.7c0-3.1,2.5-5.7,5.7-5.7h5.1
		l-10.9-31.1h-6.5c-1.6,0-2.8-1.3-2.8-2.8c0-1.6,1.3-2.8,2.8-2.8h8.5c1.2,0,2.3,0.8,2.7,1.9l0,0l1.6,4.7h17.4c0,2,0.4,3.9,1.1,5.7
		h-16.5L340.4,216z"/>
	<path clip-path="url(#SVGID_2_)" fill-rule="evenodd" clip-rule="evenodd" fill="#FBBD22" d="M243.2,213.3
		C243.2,213.3,243.2,213.3,243.2,213.3c0,0.1,0,0.2,0.1,0.3c0,0,0,0,0,0.1c0,0.1,0,0.2,0,0.3c0,0,0,0,0,0.1c0,0.9-0.3,1.8-0.9,2.4
		l0,0l-21.3,25.1l0,0c-0.7,0.8-1.7,1.3-2.9,1.3c-0.1,0-0.2,0-0.4,0c-0.1,0-0.2,0-0.3,0c0,0-0.1,0-0.1,0c-0.7-0.1-1.3-0.4-1.8-0.9
		l0,0l-31.3-28.8l0,0c-0.8-0.7-1.3-1.7-1.3-2.8h0v-20.1v-3.7v-0.1h0c0-2.1,1.7-3.8,3.8-3.8v0h23.8v0c0,0,0,0,0,0c1,0,2,0.4,2.7,1.1
		l28.8,27.5C242.7,211.9,243.1,212.6,243.2,213.3 M193.2,187.8c-2.8,0-5,2.2-5,5c0,2.8,2.2,5,5,5s5-2.2,5-5
		C198.2,190,196,187.8,193.2,187.8"/>
	<path clip-path="url(#SVGID_2_)" fill="#4EB56E" d="M527.8,186.1l-43.2-3.6l7.1,12.7c0,0-34.6,23-19.7,49.8c0,0-1.6-13.5,14.8-25.4
		c2.7-1.9,6.8-4.7,13.7-8.6l7.7,13.7L527.8,186.1z"/>
</g>
</svg>
