<?xml version="1.0" encoding="utf-8"?>
<!-- Generator: Adobe Illustrator 16.0.0, SVG Export Plug-In . SVG Version: 6.00 Build 0)  -->
<!DOCTYPE svg PUBLIC "-//W3C//DTD SVG 1.1//EN" "http://www.w3.org/Graphics/SVG/1.1/DTD/svg11.dtd">
<svg version="1.1" id="Layer_1" xmlns="http://www.w3.org/2000/svg" xmlns:xlink="http://www.w3.org/1999/xlink" x="0px" y="0px"
	 width="551px" height="968px" viewBox="0 0 551 968" enable-background="new 0 0 551 968" xml:space="preserve">
<g>
	<defs>
		<rect id="SVGID_1_" x="-160" y="-50.5" width="841.9" height="1190.5"/>
	</defs>
	<clipPath id="SVGID_2_">
		<use xlink:href="#SVGID_1_"  overflow="visible"/>
	</clipPath>
	<path clip-path="url(#SVGID_2_)" fill="#DA5465" d="M137.8,483.6c0,37.5-30.4,67.9-67.9,67.9C32.4,551.5,2,521.1,2,483.6
		c0-37.5,30.4-67.9,67.9-67.9C107.4,415.7,137.8,446.1,137.8,483.6"/>
	<path clip-path="url(#SVGID_2_)" fill="#4287BA" d="M412.3,483.6c0,37.5-30.4,67.9-67.9,67.9c-37.5,0-67.9-30.4-67.9-67.9
		c0-37.5,30.4-67.9,67.9-67.9C381.9,415.7,412.3,446.1,412.3,483.6"/>
	<path clip-path="url(#SVGID_2_)" fill="#48A664" d="M549.4,484.9c0,37.5-30.4,67.9-67.9,67.9c-37.5,0-67.9-30.4-67.9-67.9
		c0-37.5,30.4-67.9,67.9-67.9C519,417,549.4,447.4,549.4,484.9"/>
	<path clip-path="url(#SVGID_2_)" fill="#E3AC1F" d="M274.9,483.6c0,37.5-30.4,67.9-67.9,67.9c-37.5,0-67.9-30.4-67.9-67.9
		c0-37.5,30.4-67.9,67.9-67.9C244.5,415.7,274.9,446.1,274.9,483.6"/>
	<path clip-path="url(#SVGID_2_)" fill-rule="evenodd" clip-rule="evenodd" fill="#FFFFFF" d="M357.7,479.7
		c-6.8,0-12.3-5.5-12.3-12.3s5.5-12.3,12.3-12.3c6.8,0,12.3,5.5,12.3,12.3S364.4,479.7,357.7,479.7 M363.3,464.6h-2.8v-2.8
		c0-1.6-1.3-2.8-2.8-2.8c-1.6,0-2.8,1.3-2.8,2.8v2.8H352c-1.6,0-2.8,1.3-2.8,2.8s1.3,2.8,2.8,2.8h2.8v2.8c0,1.6,1.3,2.8,2.8,2.8
		c1.6,0,2.8-1.3,2.8-2.8v-2.8h2.8c1.6,0,2.8-1.3,2.8-2.8S364.9,464.6,363.3,464.6 M332.4,488l24.3-1.6l1.8-3.9
		c2.7-0.1,5.1-1,7.2-2.3l-4.6,10.1c-0.4,0.9-1.3,1.6-2.4,1.7l-24.4,1.6l1.4,4h26.6c3.1,0,5.7,2.5,5.7,5.7c0,3.1-2.5,5.7-5.7,5.7
		s-5.7-2.5-5.7-5.7h-26.4c0,3.1-2.5,5.7-5.7,5.7c-3.1,0-5.7-2.5-5.7-5.7c0-3.1,2.5-5.7,5.7-5.7h5.1l-10.9-31.1h-6.5
		c-1.6,0-2.8-1.3-2.8-2.8c0-1.6,1.3-2.8,2.8-2.8h8.5c1.2,0,2.3,0.8,2.7,1.9l0,0l1.6,4.7h17.4c0,2,0.4,3.9,1.1,5.7h-16.5L332.4,488z"
		/>
	<path clip-path="url(#SVGID_2_)" fill="#FFFFFF" d="M116.1,476.9c-1.6-0.4-4.2,6-10.1,6c-7.6,0-11.2-12.8-23.1-12.8
		c-9.4,0-12.3,7.4-13,7.4S66.4,470,57,470c-11.9,0-15.5,12.8-23.1,12.8c-5.9,0-8.5-6.4-10.1-6c-1.5,0.4,2.8,22.2,23.7,22.2
		c13.5,0,21.5-10.5,22.5-10.5c1,0,9,10.5,22.5,10.5C113.2,499,117.6,477.3,116.1,476.9"/>
	<path clip-path="url(#SVGID_2_)" fill-rule="evenodd" clip-rule="evenodd" fill="#FFFFFF" d="M239.2,485.3
		C239.2,485.3,239.2,485.3,239.2,485.3c0,0.1,0,0.2,0.1,0.3c0,0,0,0,0,0.1c0,0.1,0,0.2,0,0.3c0,0,0,0,0,0.1c0,0.9-0.3,1.8-0.9,2.4
		l0,0l-21.3,25.1l0,0c-0.7,0.8-1.7,1.3-2.9,1.3c-0.1,0-0.2,0-0.4,0c-0.1,0-0.2,0-0.3,0c0,0-0.1,0-0.1,0c-0.7-0.1-1.3-0.4-1.8-0.9
		l0,0l-31.3-28.8l0,0c-0.8-0.7-1.3-1.7-1.3-2.8h0v-20.1v-3.7v-0.1h0c0-2.1,1.7-3.8,3.8-3.8v0h23.8v0c0,0,0,0,0,0c1,0,2,0.4,2.7,1.1
		l28.8,27.5C238.7,483.9,239.1,484.6,239.2,485.3 M189.2,459.8c-2.8,0-5,2.2-5,5c0,2.8,2.2,5,5,5s5-2.2,5-5
		C194.2,462,192,459.8,189.2,459.8"/>
	<path clip-path="url(#SVGID_2_)" fill="#FFFFFF" d="M516.8,458.1l-43.2-3.6l7.1,12.7c0,0-34.6,23-19.7,49.8c0,0-1.6-13.5,14.8-25.4
		c2.7-1.9,6.8-4.7,13.7-8.6l7.7,13.7L516.8,458.1z"/>
	<path clip-path="url(#SVGID_2_)" fill="#F15D6F" d="M137.8,346.6c0,37.5-30.4,67.9-67.9,67.9C32.4,414.5,2,384.1,2,346.6
		c0-37.5,30.4-67.9,67.9-67.9C107.4,278.7,137.8,309.1,137.8,346.6"/>
	<path clip-path="url(#SVGID_2_)" fill="#4694CC" d="M412.3,346.6c0,37.5-30.4,67.9-67.9,67.9c-37.5,0-67.9-30.4-67.9-67.9
		c0-37.5,30.4-67.9,67.9-67.9C381.9,278.7,412.3,309.1,412.3,346.6"/>
	<path clip-path="url(#SVGID_2_)" fill="#4EB56E" d="M549.4,347.9c0,37.5-30.4,67.9-67.9,67.9c-37.5,0-67.9-30.4-67.9-67.9
		c0-37.5,30.4-67.9,67.9-67.9C519,280,549.4,310.4,549.4,347.9"/>
	<path clip-path="url(#SVGID_2_)" fill="#FBBD22" d="M274.9,346.6c0,37.5-30.4,67.9-67.9,67.9c-37.5,0-67.9-30.4-67.9-67.9
		c0-37.5,30.4-67.9,67.9-67.9C244.5,278.7,274.9,309.1,274.9,346.6"/>
	<path clip-path="url(#SVGID_2_)" fill-rule="evenodd" clip-rule="evenodd" fill="#FFFFFF" d="M357.7,342.7
		c-6.8,0-12.3-5.5-12.3-12.3s5.5-12.3,12.3-12.3c6.8,0,12.3,5.5,12.3,12.3S364.4,342.7,357.7,342.7 M363.3,327.6h-2.8v-2.8
		c0-1.6-1.3-2.8-2.8-2.8c-1.6,0-2.8,1.3-2.8,2.8v2.8H352c-1.6,0-2.8,1.3-2.8,2.8s1.3,2.8,2.8,2.8h2.8v2.8c0,1.6,1.3,2.8,2.8,2.8
		c1.6,0,2.8-1.3,2.8-2.8v-2.8h2.8c1.6,0,2.8-1.3,2.8-2.8S364.9,327.6,363.3,327.6 M332.4,351l24.3-1.6l1.8-3.9
		c2.7-0.1,5.1-1,7.2-2.3l-4.6,10.1c-0.4,0.9-1.3,1.6-2.4,1.7l-24.4,1.6l1.4,4h26.6c3.1,0,5.7,2.5,5.7,5.7c0,3.1-2.5,5.7-5.7,5.7
		s-5.7-2.5-5.7-5.7h-26.4c0,3.1-2.5,5.7-5.7,5.7c-3.1,0-5.7-2.5-5.7-5.7c0-3.1,2.5-5.7,5.7-5.7h5.1l-10.9-31.1h-6.5
		c-1.6,0-2.8-1.3-2.8-2.8c0-1.6,1.3-2.8,2.8-2.8h8.5c1.2,0,2.3,0.8,2.7,1.9l0,0l1.6,4.7h17.4c0,2,0.4,3.9,1.1,5.7h-16.5L332.4,351z"
		/>
	<path clip-path="url(#SVGID_2_)" fill="#FFFFFF" d="M116.1,339.9c-1.6-0.4-4.2,6-10.1,6c-7.6,0-11.2-12.8-23.1-12.8
		c-9.4,0-12.3,7.4-13,7.4S66.4,333,57,333c-11.9,0-15.5,12.8-23.1,12.8c-5.9,0-8.5-6.4-10.1-6c-1.5,0.4,2.8,22.2,23.7,22.2
		c13.5,0,21.5-10.5,22.5-10.5c1,0,9,10.5,22.5,10.5C113.2,362,117.6,340.3,116.1,339.9"/>
	<path clip-path="url(#SVGID_2_)" fill="#FFFFFF" stroke="#D74342" stroke-width="2" stroke-miterlimit="10" d="M137.8,759.6
		c0,37.5-30.4,67.9-67.9,67.9C32.4,827.5,2,797.1,2,759.6s30.4-67.9,67.9-67.9C107.4,691.7,137.8,722.1,137.8,759.6"/>
	<path clip-path="url(#SVGID_2_)" fill="#D74342" d="M116.1,752.9c-1.6-0.4-4.2,6-10.1,6c-7.6,0-11.2-12.8-23.1-12.8
		c-9.4,0-12.3,7.4-13,7.4S66.4,746,57,746c-11.9,0-15.5,12.8-23.1,12.8c-5.9,0-8.5-6.4-10.1-6c-1.5,0.4,2.8,22.2,23.7,22.2
		c13.5,0,21.5-10.5,22.5-10.5c1,0,9,10.5,22.5,10.5C113.2,775,117.6,753.3,116.1,752.9"/>
	<path clip-path="url(#SVGID_2_)" fill="none" stroke="#D74342" stroke-width="2" stroke-miterlimit="10" d="M137.8,898.6
		c0,37.5-30.4,67.9-67.9,67.9C32.4,966.5,2,936.1,2,898.6s30.4-67.9,67.9-67.9C107.4,830.7,137.8,861.1,137.8,898.6"/>
	<path clip-path="url(#SVGID_2_)" fill="#D74342" d="M116.1,891.9c-1.6-0.4-4.2,6-10.1,6c-7.6,0-11.2-12.8-23.1-12.8
		c-9.4,0-12.3,7.4-13,7.4S66.4,885,57,885c-11.9,0-15.5,12.8-23.1,12.8c-5.9,0-8.5-6.4-10.1-6c-1.5,0.4,2.8,22.2,23.7,22.2
		c13.5,0,21.5-10.5,22.5-10.5c1,0,9,10.5,22.5,10.5C113.2,914,117.6,892.3,116.1,891.9"/>
	<path clip-path="url(#SVGID_2_)" fill="#D74342" d="M137.8,621.6c0,37.5-30.4,67.9-67.9,67.9C32.4,689.5,2,659.1,2,621.6
		s30.4-67.9,67.9-67.9C107.4,553.7,137.8,584.1,137.8,621.6"/>
	<path clip-path="url(#SVGID_2_)" fill="#FFFFFF" d="M116.1,614.9c-1.6-0.4-4.2,6-10.1,6c-7.6,0-11.2-12.8-23.1-12.8
		c-9.4,0-12.3,7.4-13,7.4S66.4,608,57,608c-11.9,0-15.5,12.8-23.1,12.8c-5.9,0-8.5-6.4-10.1-6c-1.5,0.4,2.8,22.2,23.7,22.2
		c13.5,0,21.5-10.5,22.5-10.5c1,0,9,10.5,22.5,10.5C113.2,637,117.6,615.3,116.1,614.9"/>
	<path clip-path="url(#SVGID_2_)" fill="#FFFFFF" stroke="#F15D6F" stroke-width="2" stroke-miterlimit="10" d="M137.8,69.6
		c0,37.5-30.4,67.9-67.9,67.9C32.4,137.5,2,107.1,2,69.6C2,32.1,32.4,1.7,69.9,1.7C107.4,1.7,137.8,32.1,137.8,69.6"/>
	<path clip-path="url(#SVGID_2_)" fill="#F15D6F" d="M116.1,62.9c-1.6-0.4-4.2,6-10.1,6C98.3,68.8,94.8,56,82.9,56
		c-9.4,0-12.3,7.4-13,7.4S66.4,56,57,56C45,56,41.5,68.8,33.8,68.8c-5.9,0-8.5-6.4-10.1-6C22.2,63.3,26.6,85,47.4,85
		c13.5,0,21.5-10.5,22.5-10.5c1,0,9,10.5,22.5,10.5C113.2,85,117.6,63.3,116.1,62.9"/>
	<path clip-path="url(#SVGID_2_)" fill-rule="evenodd" clip-rule="evenodd" fill="#FFFFFF" d="M239.2,348.3
		C239.2,348.3,239.2,348.3,239.2,348.3c0,0.1,0,0.2,0.1,0.3c0,0,0,0,0,0.1c0,0.1,0,0.2,0,0.3c0,0,0,0,0,0.1c0,0.9-0.3,1.8-0.9,2.4
		l0,0l-21.3,25.1l0,0c-0.7,0.8-1.7,1.3-2.9,1.3c-0.1,0-0.2,0-0.4,0c-0.1,0-0.2,0-0.3,0c0,0-0.1,0-0.1,0c-0.7-0.1-1.3-0.4-1.8-0.9
		l0,0l-31.3-28.8l0,0c-0.8-0.7-1.3-1.7-1.3-2.8h0v-20.1v-3.7v-0.1h0c0-2.1,1.7-3.8,3.8-3.8v0h23.8v0c0,0,0,0,0,0c1,0,2,0.4,2.7,1.1
		l28.8,27.5C238.7,346.9,239.1,347.6,239.2,348.3 M189.2,322.8c-2.8,0-5,2.2-5,5c0,2.8,2.2,5,5,5s5-2.2,5-5
		C194.2,325,192,322.8,189.2,322.8"/>
	<path clip-path="url(#SVGID_2_)" fill="#FFFFFF" d="M516.8,321.1l-43.2-3.6l7.1,12.7c0,0-34.6,23-19.7,49.8c0,0-1.6-13.5,14.8-25.4
		c2.7-1.9,6.8-4.7,13.7-8.6l7.7,13.7L516.8,321.1z"/>
	<path clip-path="url(#SVGID_2_)" fill="#FFFFFF" stroke="#4694CC" stroke-width="2" stroke-miterlimit="10" d="M412.3,69.6
		c0,37.5-30.4,67.9-67.9,67.9c-37.5,0-67.9-30.4-67.9-67.9c0-37.5,30.4-67.9,67.9-67.9C381.9,1.7,412.3,32.1,412.3,69.6"/>
	<path clip-path="url(#SVGID_2_)" fill="#FFFFFF" stroke="#4EB56E" stroke-width="2" stroke-miterlimit="10" d="M549.4,70.9
		c0,37.5-30.4,67.9-67.9,67.9c-37.5,0-67.9-30.4-67.9-67.9C413.6,33.4,444,3,481.5,3C519,3,549.4,33.4,549.4,70.9"/>
	<path clip-path="url(#SVGID_2_)" fill="#FFFFFF" stroke="#FBBD22" stroke-width="2" stroke-miterlimit="10" d="M274.9,69.6
		c0,37.5-30.4,67.9-67.9,67.9c-37.5,0-67.9-30.4-67.9-67.9c0-37.5,30.4-67.9,67.9-67.9C244.5,1.7,274.9,32.1,274.9,69.6"/>
	<path clip-path="url(#SVGID_2_)" fill-rule="evenodd" clip-rule="evenodd" fill="#4694CC" d="M357.7,65.7
		c-6.8,0-12.3-5.5-12.3-12.3s5.5-12.3,12.3-12.3c6.8,0,12.3,5.5,12.3,12.3S364.4,65.7,357.7,65.7 M363.3,50.6h-2.8v-2.8
		c0-1.6-1.3-2.8-2.8-2.8c-1.6,0-2.8,1.3-2.8,2.8v2.8H352c-1.6,0-2.8,1.3-2.8,2.8s1.3,2.8,2.8,2.8h2.8v2.8c0,1.6,1.3,2.8,2.8,2.8
		c1.6,0,2.8-1.3,2.8-2.8v-2.8h2.8c1.6,0,2.8-1.3,2.8-2.8S364.9,50.6,363.3,50.6 M332.4,74l24.3-1.6l1.8-3.9c2.7-0.1,5.1-1,7.2-2.3
		l-4.6,10.1c-0.4,0.9-1.3,1.6-2.4,1.7l-24.4,1.6l1.4,4h26.6c3.1,0,5.7,2.5,5.7,5.7c0,3.1-2.5,5.7-5.7,5.7s-5.7-2.5-5.7-5.7h-26.4
		c0,3.1-2.5,5.7-5.7,5.7c-3.1,0-5.7-2.5-5.7-5.7c0-3.1,2.5-5.7,5.7-5.7h5.1l-10.9-31.1h-6.5c-1.6,0-2.8-1.3-2.8-2.8
		c0-1.6,1.3-2.8,2.8-2.8h8.5c1.2,0,2.3,0.8,2.7,1.9l0,0l1.6,4.7h17.4c0,2,0.4,3.9,1.1,5.7h-16.5L332.4,74z"/>
	<path clip-path="url(#SVGID_2_)" fill-rule="evenodd" clip-rule="evenodd" fill="#FBBD22" d="M239.2,71.3
		C239.2,71.3,239.2,71.3,239.2,71.3c0,0.1,0,0.2,0.1,0.3c0,0,0,0,0,0.1c0,0.1,0,0.2,0,0.3c0,0,0,0,0,0.1c0,0.9-0.3,1.8-0.9,2.4l0,0
		l-21.3,25.1l0,0c-0.7,0.8-1.7,1.3-2.9,1.3c-0.1,0-0.2,0-0.4,0c-0.1,0-0.2,0-0.3,0c0,0-0.1,0-0.1,0c-0.7-0.1-1.3-0.4-1.8-0.9l0,0
		l-31.3-28.8l0,0c-0.8-0.7-1.3-1.7-1.3-2.8h0V48.2v-3.7v-0.1h0c0-2.1,1.7-3.8,3.8-3.8v0h23.8v0c0,0,0,0,0,0c1,0,2,0.4,2.7,1.1
		l28.8,27.5C238.7,69.9,239.1,70.6,239.2,71.3 M189.2,45.8c-2.8,0-5,2.2-5,5c0,2.8,2.2,5,5,5s5-2.2,5-5
		C194.2,48,192,45.8,189.2,45.8"/>
	<path clip-path="url(#SVGID_2_)" fill="#4EB56E" d="M516.8,44.1l-43.2-3.6l7.1,12.7c0,0-34.6,23-19.7,49.8c0,0-1.6-13.5,14.8-25.4
		c2.7-1.9,6.8-4.7,13.7-8.6l7.7,13.7L516.8,44.1z"/>
	<path clip-path="url(#SVGID_2_)" fill="none" stroke="#F15D6F" stroke-width="2" stroke-miterlimit="10" d="M137.8,208.6
		c0,37.5-30.4,67.9-67.9,67.9C32.4,276.5,2,246.1,2,208.6c0-37.5,30.4-67.9,67.9-67.9C107.4,140.7,137.8,171.1,137.8,208.6"/>
	<path clip-path="url(#SVGID_2_)" fill="#F15D6F" d="M116.1,201.9c-1.6-0.4-4.2,6-10.1,6c-7.6,0-11.2-12.8-23.1-12.8
		c-9.4,0-12.3,7.4-13,7.4S66.4,195,57,195c-11.9,0-15.5,12.8-23.1,12.8c-5.9,0-8.5-6.4-10.1-6c-1.5,0.4,2.8,22.2,23.7,22.2
		c13.5,0,21.5-10.5,22.5-10.5c1,0,9,10.5,22.5,10.5C113.2,224,117.6,202.3,116.1,201.9"/>
	<path clip-path="url(#SVGID_2_)" fill="none" stroke="#4694CC" stroke-width="2" stroke-miterlimit="10" d="M412.3,208.6
		c0,37.5-30.4,67.9-67.9,67.9c-37.5,0-67.9-30.4-67.9-67.9c0-37.5,30.4-67.9,67.9-67.9C381.9,140.7,412.3,171.1,412.3,208.6"/>
	<path clip-path="url(#SVGID_2_)" fill="none" stroke="#4EB56E" stroke-width="2" stroke-miterlimit="10" d="M549.4,209.9
		c0,37.5-30.4,67.9-67.9,67.9c-37.5,0-67.9-30.4-67.9-67.9c0-37.5,30.4-67.9,67.9-67.9C519,142,549.4,172.4,549.4,209.9"/>
	<path clip-path="url(#SVGID_2_)" fill="none" stroke="#FBBD22" stroke-width="2" stroke-miterlimit="10" d="M274.9,208.6
		c0,37.5-30.4,67.9-67.9,67.9c-37.5,0-67.9-30.4-67.9-67.9c0-37.5,30.4-67.9,67.9-67.9C244.5,140.7,274.9,171.1,274.9,208.6"/>
	<path clip-path="url(#SVGID_2_)" fill-rule="evenodd" clip-rule="evenodd" fill="#4694CC" d="M357.7,204.7
		c-6.8,0-12.3-5.5-12.3-12.3s5.5-12.3,12.3-12.3c6.8,0,12.3,5.5,12.3,12.3S364.4,204.7,357.7,204.7 M363.3,189.6h-2.8v-2.8
		c0-1.6-1.3-2.8-2.8-2.8c-1.6,0-2.8,1.3-2.8,2.8v2.8H352c-1.6,0-2.8,1.3-2.8,2.8s1.3,2.8,2.8,2.8h2.8v2.8c0,1.6,1.3,2.8,2.8,2.8
		c1.6,0,2.8-1.3,2.8-2.8v-2.8h2.8c1.6,0,2.8-1.3,2.8-2.8S364.9,189.6,363.3,189.6 M332.4,213l24.3-1.6l1.8-3.9
		c2.7-0.1,5.1-1,7.2-2.3l-4.6,10.1c-0.4,0.9-1.3,1.6-2.4,1.7l-24.4,1.6l1.4,4h26.6c3.1,0,5.7,2.5,5.7,5.7c0,3.1-2.5,5.7-5.7,5.7
		s-5.7-2.5-5.7-5.7h-26.4c0,3.1-2.5,5.7-5.7,5.7c-3.1,0-5.7-2.5-5.7-5.7c0-3.1,2.5-5.7,5.7-5.7h5.1l-10.9-31.1h-6.5
		c-1.6,0-2.8-1.3-2.8-2.8c0-1.6,1.3-2.8,2.8-2.8h8.5c1.2,0,2.3,0.8,2.7,1.9l0,0l1.6,4.7h17.4c0,2,0.4,3.9,1.1,5.7h-16.5L332.4,213z"
		/>
	<path clip-path="url(#SVGID_2_)" fill-rule="evenodd" clip-rule="evenodd" fill="#FBBD22" d="M239.2,210.3
		C239.2,210.3,239.2,210.3,239.2,210.3c0,0.1,0,0.2,0.1,0.3c0,0,0,0,0,0.1c0,0.1,0,0.2,0,0.3c0,0,0,0,0,0.1c0,0.9-0.3,1.8-0.9,2.4
		l0,0l-21.3,25.1l0,0c-0.7,0.8-1.7,1.3-2.9,1.3c-0.1,0-0.2,0-0.4,0c-0.1,0-0.2,0-0.3,0c0,0-0.1,0-0.1,0c-0.7-0.1-1.3-0.4-1.8-0.9
		l0,0l-31.3-28.8l0,0c-0.8-0.7-1.3-1.7-1.3-2.8h0v-20.1v-3.7v-0.1h0c0-2.1,1.7-3.8,3.8-3.8v0h23.8v0c0,0,0,0,0,0c1,0,2,0.4,2.7,1.1
		l28.8,27.5C238.7,208.9,239.1,209.6,239.2,210.3 M189.2,184.8c-2.8,0-5,2.2-5,5c0,2.8,2.2,5,5,5s5-2.2,5-5
		C194.2,187,192,184.8,189.2,184.8"/>
	<path clip-path="url(#SVGID_2_)" fill="#4EB56E" d="M516.8,183.1l-43.2-3.6l7.1,12.7c0,0-34.6,23-19.7,49.8c0,0-1.6-13.5,14.8-25.4
		c2.7-1.9,6.8-4.7,13.7-8.6l7.7,13.7L516.8,183.1z"/>
</g>
</svg>
